Coordinates
version=1
nRows=7
nColumns=63
inDegrees=yes

Units are S.I. units (second, meters, Newtons, ...)
If the header above contains a line with 'inDegrees', this indicates whether rotational values are in degrees (yes) or radians (no).

endheader
time	pelvis_tilt	pelvis_list	pelvis_rotation	pelvis_tx	pelvis_ty	pelvis_tz	hip_flexion_r	hip_adduction_r	hip_rotation_r	knee_angle_r	knee_angle_r_beta	ankle_angle_r	subtalar_angle_r	mtp_angle_r	hip_flexion_l	hip_adduction_l	hip_rotation_l	knee_angle_l	knee_angle_l_beta	ankle_angle_l	subtalar_angle_l	mtp_angle_l	L5_S1_Flex_Ext	L5_S1_Lat_Bending	L5_S1_axial_rotation	L4_L5_Flex_Ext	L4_L5_Lat_Bending	L4_L5_axial_rotation	L3_L4_Flex_Ext	L3_L4_Lat_Bending	L3_L4_axial_rotation	L2_L3_Flex_Ext	L2_L3_Lat_Bending	L2_L3_axial_rotation	L1_L2_Flex_Ext	L1_L2_Lat_Bending	L1_L2_axial_rotation	L1_T12_Flex_Ext	L1_T12_Lat_Bending	L1_T12_axial_rotation	Abs_r3	Abs_r2	Abs_r1	Abs_t1	Abs_t2	neck_flexion	neck_bending	neck_rotation	arm_flex_r	arm_add_r	arm_rot_r	elbow_flex_r	pro_sup_r	wrist_flex_r	wrist_dev_r	arm_flex_l	arm_add_l	arm_rot_l	elbow_flex_l	pro_sup_l	wrist_flex_l	wrist_dev_l
      0.00000000	      0.26465206	     -4.72959075	     99.41685293	      0.17662489	      0.51045930	      0.95823709	      4.46528374	      1.71478369	    -14.42513856	     17.43395633	      0.30427994	     50.48290428	     13.94851228	      0.00000000	      1.89517973	      2.13365425	      7.63664367	     12.87675325	      0.22474174	     45.86843759	     -6.67578271	      0.00000000	      0.15171024	      0.40607159	     -0.36361955	      0.28174109	      0.54007522	     -0.38634577	      0.24924476	      0.98732248	     -0.38634577	      0.17338964	      0.98732248	     -0.31816711	      0.14087813	      0.82806120	     -0.29544088	      0.08668723	      0.62900490	     -0.27271466	      1.08365109	      4.59356310	     -2.02234285	      0.00000000	      0.00000000	     23.26988523	     -1.88890547	     -4.74956108	     22.37789364	    -11.51352108	     73.98439397	     49.71063699	     56.95060581	     22.57734076	     14.40932190	     16.09294291	     -5.32453954	     59.01744418	     50.39543411	     49.10878250	      4.24144561	     17.86348084
      0.01694915	     -0.14805778	     -5.12437514	     97.46121723	      0.17911553	      0.50907063	      0.96102959	      5.67278503	      1.18075240	    -12.57857108	     18.79683361	      0.32806664	     50.32274127	     13.36673050	      0.00000000	      2.17268612	      2.68819033	      6.41242490	     12.86898562	      0.22460617	     44.88467727	     -7.98628517	      0.00000000	      0.15150203	      0.35818364	      0.02576540	      0.28135443	      0.47638425	      0.02737574	      0.24890269	      0.87088771	      0.02737574	      0.17315167	      0.87088771	      0.02254473	      0.14068479	      0.73040809	      0.02093439	      0.08656826	      0.55482646	      0.01932405	      1.08216388	      4.05184502	      0.14329945	      0.00000000	      0.00000000	     23.67715832	     -2.00627789	     -5.38265985	     22.58101321	    -11.78458213	     73.23406278	     50.31102125	     54.96678202	     21.48102217	     14.55937445	     16.25583396	     -6.25841101	     60.42561902	     50.02449041	     55.95862633	      8.50166232	     14.97846927
      0.03389831	     -0.57541674	     -5.48995202	     95.59107676	      0.18172534	      0.50784831	      0.96337806	      6.76779246	      0.74632047	    -10.75906856	     19.90531928	      0.34741336	     50.26881290	     12.91960657	      0.00000000	      2.47699276	      3.15499337	      4.83198709	     12.85716107	      0.22439979	     44.25381579	     -8.58992426	      0.00000000	      0.15968685	      0.30684069	      0.39963382	      0.29655446	      0.40809811	      0.42461093	      0.26234953	      0.74605244	      0.42461093	      0.18250610	      0.74605244	      0.34967959	      0.14828521	      0.62570953	      0.32470248	      0.09124507	      0.47529622	      0.29972536	      1.14062723	      3.47104320	      2.22264340	      0.00000000	      0.00000000	     23.96697669	     -2.03924292	     -5.84014019	     22.80049638	    -11.95014619	     72.91796004	     50.69776819	     52.97944322	     20.54307793	     14.55155520	     16.76537935	     -6.99652428	     61.92299664	     49.64973992	     64.95456926	     11.66039364	     10.57511187
      0.05084746	     -0.88450027	     -5.78205223	     94.38430589	      0.18350924	      0.50679625	      0.96550653	      7.71474285	      0.47875333	     -9.36505036	     20.86845146	      0.36422319	     50.23627338	     12.29870888	      0.00000000	      2.90084139	      3.41830665	      3.22725863	     13.07041342	      0.22812175	     44.10062081	     -8.23757156	      0.00000000	      0.16693139	      0.26814363	      0.59100654	      0.31000829	      0.35663103	      0.62794444	      0.27425159	      0.65196442	      0.62794444	      0.19078589	      0.65196442	      0.51713072	      0.15501249	      0.54679849	      0.48019281	      0.09538460	      0.41535448	      0.44325490	      1.19237425	      3.03329437	      3.28700105	      0.00000000	      0.00000000	     24.20158082	     -1.76264054	     -5.77964422	     23.30159279	    -11.92860556	     73.43280791	     50.88533530	     50.60613416	     19.87448035	     14.81236197	     16.66679483	     -7.36483404	     60.68940224	     49.57725671	     77.00512201	     14.86197704	      7.04844556
      0.06779661	     -0.89615596	     -5.83534836	     94.15809267	      0.18375619	      0.50647893	      0.96703970	      7.89931168	      0.43812968	     -9.35981720	     20.95478429	      0.36572998	     50.10529033	     12.31398525	      0.00000000	      3.03493290	      3.43349842	      3.10476383	     13.10855587	      0.22878746	     43.95508010	     -8.28715973	      0.00000000	      0.15673345	      0.26812747	      0.60848542	      0.29106970	      0.35660953	      0.64651576	      0.25749739	      0.65192512	      0.64651576	      0.17913066	      0.65192512	      0.53242474	      0.14554268	      0.54676553	      0.49439440	      0.08955749	      0.41532944	      0.45636407	      1.11953138	      3.03311152	      3.38421336	      0.00000000	      0.00000000	     24.16343582	     -1.76656257	     -5.76975926	     23.54518941	    -11.94992338	     73.36627518	     50.94656874	     50.54620384	     19.90565150	     14.78884109	     16.70733742	     -7.55586398	     60.80095444	     49.70069089	     77.15942770	     14.89813513	      6.93499548
      0.08474576	     -1.30820344	     -6.10949073	     92.27616345	      0.18652541	      0.50569839	      0.96848397	      8.92331467	      0.12215938	     -7.71543352	     21.97211075	      0.38348568	     50.35989372	     12.50490938	      0.00000000	      3.35561433	      3.73278612	      0.79515908	     13.14724310	      0.22946268	     44.04625031	     -7.86450883	      0.00000000	      0.17644621	      0.22256306	      0.95246271	      0.32767826	      0.29600887	      1.01199163	      0.28988348	      0.54113983	      1.01199163	      0.20166037	      0.54113983	      0.83340488	      0.16384795	      0.45385060	      0.77387596	      0.10082137	      0.34475019	      0.71434704	      1.26033764	      2.51767789	      5.29731188	      0.00000000	      0.00000000	     24.19344949	     -1.68105092	     -5.70668942	     24.01829132	    -11.84217081	     74.29629532	     50.66564517	     48.60297106	     20.32106081	     14.85446027	     17.27714560	     -7.92228830	     62.13585189	     49.74763689	     79.02085221	     14.08536031	      4.37848622
      0.10169492	     -1.33429533	     -6.13495330	     92.22228280	      0.18659677	      0.50560283	      0.96924005	      9.04478783	      0.10007651	     -7.62262274	     22.04343349	      0.38473049	     50.39554749	     12.37509396	      0.00000000	      3.46820418	      3.75139757	      0.70778897	     13.20044968	      0.23039131	     44.16659121	     -7.79058715	      0.00000000	      0.17783255	      0.22044366	      0.93594247	      0.33025282	      0.29319006	      0.99443887	      0.29216109	      0.53598671	      0.99443887	      0.20324482	      0.53598671	      0.81894966	      0.16513530	      0.44952870	      0.76045326	      0.10161352	      0.34146722	      0.70195685	      1.27024010	      2.49370273	      5.20543122	      0.00000000	      0.00000000	     24.00238794	     -1.68178331	     -5.68281854	     24.01353228	    -11.83218179	     74.36444454	     50.69477788	     48.60516879	     20.22908094	     14.83079162	     17.36830937	     -7.93322477	     62.06755220	     49.73639639	     78.86112787	     14.01174076	      4.39065811
